<?xml version="1.0" encoding="UTF-8" standalone="no"?>
<!-- Created with Inkscape (http://www.inkscape.org/) -->

<svg
   xmlns:dc="http://purl.org/dc/elements/1.1/"
   xmlns:cc="http://creativecommons.org/ns#"
   xmlns:rdf="http://www.w3.org/1999/02/22-rdf-syntax-ns#"
   xmlns:svg="http://www.w3.org/2000/svg"
   xmlns="http://www.w3.org/2000/svg"
   xmlns:sodipodi="http://sodipodi.sourceforge.net/DTD/sodipodi-0.dtd"
   xmlns:inkscape="http://www.inkscape.org/namespaces/inkscape"
   width="134.65158"
   height="134.64967"
   id="svg4726"
   version="1.1"
   inkscape:version="0.48.4 r9939"
   sodipodi:docname="New document 6">
  <defs
     id="defs4728" />
  <sodipodi:namedview
     id="base"
     pagecolor="#ffffff"
     bordercolor="#666666"
     borderopacity="1.0"
     inkscape:pageopacity="0.0"
     inkscape:pageshadow="2"
     inkscape:zoom="1.979899"
     inkscape:cx="113.36842"
     inkscape:cy="37.529694"
     inkscape:document-units="px"
     inkscape:current-layer="layer1"
     showgrid="false"
     units="mm"
     fit-margin-top="0"
     fit-margin-left="0"
     fit-margin-right="0"
     fit-margin-bottom="0"
     inkscape:window-width="1440"
     inkscape:window-height="876"
     inkscape:window-x="0"
     inkscape:window-y="24"
     inkscape:window-maximized="1" />
  <metadata
     id="metadata4731">
    <rdf:RDF>
      <cc:Work
         rdf:about="">
        <dc:format>image/svg+xml</dc:format>
        <dc:type
           rdf:resource="http://purl.org/dc/dcmitype/StillImage" />
        <dc:title></dc:title>
      </cc:Work>
    </rdf:RDF>
  </metadata>
  <g
     inkscape:label="Layer 1"
     inkscape:groupmode="layer"
     id="layer1"
     transform="translate(-292.67421,-499.32305)">
    <path
       sodipodi:type="arc"
       style="fill:#0b1728;fill-opacity:1;stroke:none"
       id="path2985"
       sodipodi:cx="171.72594"
       sodipodi:cy="159.38733"
       sodipodi:rx="51.51778"
       sodipodi:ry="51.51778"
       d="m 223.24372,159.38733 c 0,28.45248 -23.0653,51.51778 -51.51778,51.51778 -28.45249,0 -51.51778,-23.0653 -51.51778,-51.51778 0,-28.45249 23.06529,-51.51778 51.51778,-51.51778 28.45248,0 51.51778,23.06529 51.51778,51.51778 z"
       transform="matrix(1.3067883,0,0,1.3067883,135.5876,358.36039)"
       inkscape:export-filename="/home/special-k/38_1.png"
       inkscape:export-xdpi="300"
       inkscape:export-ydpi="300" />
    <path
       style="fill:#002b4b;fill-opacity:0.63013695;stroke:none"
       d="m 372.33272,500.4615 c -1.3098,-0.24401 -2.61955,-0.43851 -3.92452,-0.60395 l -24.61547,132.13297 c 1.27701,0.31553 2.56892,0.60569 3.87872,0.84971 1.3098,0.24401 2.61955,0.4385 3.92453,0.60394 l 24.61546,-132.13294 c -1.27702,-0.31555 -2.56892,-0.60572 -3.87872,-0.84973 z m -11.86875,-1.13028 c -2.74084,-0.022 -5.47398,0.11375 -8.15235,0.42031 l -23.57386,126.54166 c 2.38834,1.25046 4.88931,2.36099 7.45414,3.3277 l 24.27207,-130.28967 z m 23.3483,4.34962 -24.27207,130.28967 c 2.74084,0.022 5.44324,-0.11949 8.12164,-0.42604 L 391.2357,507.00281 c -2.38834,-1.25044 -4.85859,-2.35527 -7.42343,-3.32197 z m -39.82261,-2.42802 c -2.9295,0.71921 -5.79734,1.62877 -8.5816,2.72443 l -20.91829,112.2869 c 2.20296,2.02475 4.55661,3.87524 7.03062,5.60108 l 22.46927,-120.61241 z m 54.49984,10.15295 -22.46927,120.61242 c 2.91849,-0.71717 5.77084,-1.60861 8.54517,-2.69943 l 20.91829,-112.2869 c -2.19544,-2.01668 -4.5297,-3.90611 -6.99419,-5.62609 z m -71.91276,-3.19302 c -3.2603,1.86607 -6.35616,4 -9.26267,6.38028 l -15.88188,85.25203 c 1.85443,3.26718 3.9742,6.37275 6.34385,9.28765 l 18.8007,-100.91996 z m 85.64567,15.98699 -18.78924,100.85851 c 3.24502,-1.86013 6.33208,-3.98545 9.22621,-6.35526 l 15.88187,-85.25202 c -1.84665,-3.25301 -3.96131,-6.34737 -6.31884,-9.25123 z m -104.82134,0.43512 c -6.68158,8.35508 -11.47399,18.42104 -13.57013,29.67288 -2.09614,11.25183 -1.24986,22.36825 1.97493,32.56879 l 11.5952,-62.24167 z m 116.80296,21.75962 -11.59521,62.24166 c 6.68158,-8.35505 11.47399,-18.42103 13.57013,-29.67287 2.09615,-11.25184 1.24988,-22.36826 -1.97492,-32.56879 z"
       id="rect4104"
       inkscape:connector-curvature="0"
       inkscape:export-filename="/home/special-k/38_1.png"
       inkscape:export-xdpi="300"
       inkscape:export-ydpi="300" />
    <path
       style="font-size:16.90694046px;font-style:italic;font-variant:normal;font-weight:normal;font-stretch:normal;text-indent:0;text-align:start;text-decoration:none;line-height:125%;letter-spacing:0px;word-spacing:0px;text-transform:none;direction:ltr;block-progression:tb;writing-mode:lr-tb;text-anchor:start;baseline-shift:baseline;color:#000000;fill:#ff5555;fill-opacity:0.37442926;fill-rule:nonzero;stroke:none;stroke-width:2.11336756;marker:none;visibility:visible;display:inline;overflow:visible;enable-background:accumulate;font-family:Ubuntu;-inkscape-font-specification:Ubuntu Italic"
       d="m 420.18628,555.59664 -1.53125,0.3125 -2.03125,0.40625 -0.71875,0.125 -0.125,0.71875 -0.6875,3.6875 c -0.0102,-8e-5 -0.0211,0 -0.0312,0 -1.02236,10e-6 -1.99778,0.25733 -2.84375,0.75 -0.81113,0.45611 -1.50574,1.07533 -2.0625,1.84375 -0.36071,0.49883 -0.63331,1.06056 -0.875,1.65625 -0.0232,-1.12786 -0.29936,-2.13394 -0.90625,-2.9375 -0.68113,-0.9018 -1.7921,-1.34374 -3,-1.34375 -0.72605,10e-6 -1.44291,0.0788 -2.09375,0.25 -0.01,0.003 -0.0217,-0.003 -0.0312,0 -0.56973,0.14239 -1.09243,0.32161 -1.5625,0.5 l 0.375,1 -1.03125,-0.21875 -0.375,1.96875 c -0.0573,-0.89021 -0.31886,-1.72162 -0.875,-2.375 -0.65585,-0.77047 -1.67231,-1.15624 -2.71875,-1.15625 -0.94598,10e-6 -1.87501,0.24711 -2.65625,0.75 -0.72075,0.46393 -1.30961,1.10067 -1.8125,1.84375 l 0.1875,-1.09375 0.25,-1.25 -1.28125,0 -1.5,0 0.375,-1.96875 0.3125,-1.53125 -1.5625,0.3125 -2.03125,0.40625 0.21875,1.03125 -1.03125,-0.1875 -1.28125,6.75 c 0.0223,-0.19982 0.0625,-0.40412 0.0625,-0.59375 -10e-6,-1.19213 -0.27114,-2.25283 -0.90625,-3.09375 -0.68113,-0.90181 -1.82334,-1.34374 -3.03125,-1.34375 -0.73672,10e-6 -1.43454,0.0736 -2.09375,0.25 -0.58199,0.14439 -1.11514,0.31836 -1.59375,0.5 l 0.375,0.96875 -1.03125,-0.1875 -0.625,3.375 c -0.0278,-1.29873 -0.34292,-2.45881 -1,-3.375 -0.70846,-1.00603 -1.89202,-1.56249 -3.15625,-1.5625 -1.01127,10e-6 -1.96378,0.28884 -2.75,0.875 -0.3915,0.29189 -0.74635,0.6259 -1.0625,1 l 0.0312,-0.15625 0.21875,-0.78125 -0.71875,-0.40625 c -0.1792,-0.10073 -0.37346,-0.19336 -0.5625,-0.25 -0.009,-0.003 -0.022,0.003 -0.0312,0 -0.16705,-0.0513 -0.3508,-0.0935 -0.53125,-0.125 -0.0101,-0.002 -0.0212,0.002 -0.0312,0 -0.1548,-0.0271 -0.30814,-0.0473 -0.46875,-0.0625 -0.0215,-0.004 -0.0411,0.003 -0.0625,0 -0.18442,-0.0285 -0.34921,-0.0625 -0.53125,-0.0625 -0.68862,10e-6 -1.34642,0.10766 -1.96875,0.28125 -0.01,0.003 -0.0216,-0.003 -0.0312,0 -0.55732,0.14572 -1.10092,0.32342 -1.59375,0.53125 l -0.0625,0.0312 0.125,-0.6875 0.40625,-2.15625 0.21875,-1.25 -1.25,0 -6.90625,0 -0.875,0 -0.15625,0.875 -2.6875,14.15625 1.03125,0.1875 0,1.0625 2.03125,0 0.875,0 0.1875,-0.875 1,-5.34375 3.4375,0 0.875,0 0.15625,-0.84375 0.40625,-2.125 0.21875,-1.28125 -1.28125,0 -3,0 0.28125,-1.5625 4,0 0.5,0 -0.0625,0.0312 -0.0937,0.5625 -1.9375,10.1875 -0.25,1.25 1.28125,0 1.96875,0 0.875,0 0.15625,-0.875 1.5,-7.90625 c 0.0629,-0.007 0.13515,-0.0312 0.1875,-0.0312 0.2759,0 0.50571,0.0294 0.65625,0.0625 0.18397,0.0405 0.3225,0.0915 0.46875,0.15625 l 0.4375,-0.96875 0.46875,0.125 c -0.26721,0.58585 -0.47435,1.21851 -0.625,1.875 -0.2098,0.91412 -0.3125,1.81156 -0.3125,2.6875 0,1.3768 0.28527,2.62315 0.96875,3.59375 0.70844,1.00604 1.89199,1.5625 3.15625,1.5625 1.01952,0 1.99261,-0.28701 2.78125,-0.875 0.73712,-0.53991 1.32551,-1.24566 1.78125,-2.0625 0.16289,-0.28406 0.30494,-0.57351 0.4375,-0.875 l -0.4375,2.28125 -0.21875,1.25 1.28125,0 1.9375,0 0.875,0 0.15625,-0.875 1.5,-7.9375 c 0.10499,-0.0107 0.15421,-0.0312 0.28125,-0.0312 0.1739,0 0.24044,0.0285 0.25,0.0312 0.0442,0.10832 0.0633,0.27827 0.0625,0.53125 -4e-5,0.0153 3.6e-4,0.0152 0,0.0312 -0.01,0.2262 -0.0177,0.48896 -0.0625,0.75 -0.0516,0.30024 -0.10473,0.58776 -0.15625,0.875 -0.002,0.01 0.002,0.0213 0,0.0312 l -1,5.34375 -0.25,1.25 1.28125,0 1.9375,0 0.875,0 0.1875,-0.875 0.625,-3.28125 c -0.01,0.16603 -0.0312,0.33462 -0.0312,0.5 0,1.04337 0.23677,2.00191 0.8125,2.75 l 0.0312,0 c 0.64511,0.81618 1.69541,1.15624 2.8125,1.15625 0.59104,-10e-6 1.11607,-0.0532 1.625,-0.21875 0.42132,-0.13708 0.7965,-0.28806 1.125,-0.46875 l 0.59375,-0.34375 -0.0312,-0.65625 -0.0625,-0.84375 c 0.13245,0.30299 0.27672,0.60288 0.46875,0.875 l 0,0.0312 c 0.3759,0.51214 0.8678,0.93045 1.4375,1.21875 0.60773,0.30761 1.30138,0.4375 2.03125,0.4375 0.69011,0 1.34117,-0.0926 1.9375,-0.28125 0.5173,-0.16364 0.94403,-0.31757 1.3125,-0.53125 l 0.25,-0.15625 -0.125,0.6875 1.28125,0 1.96875,0 0.875,0 0.15625,-0.875 1.5,-7.9375 c 0.10197,-0.01 0.15878,-0.0312 0.28125,-0.0312 0.15251,0 0.19879,0.0269 0.21875,0.0312 0.0513,0.10798 0.0945,0.27634 0.0937,0.53125 -5e-5,0.0151 3.5e-4,0.0156 0,0.0312 -0.01,0.22644 -0.0177,0.48896 -0.0625,0.75 -0.0516,0.30033 -0.13595,0.58763 -0.1875,0.875 -0.002,0.01 0.002,0.0215 0,0.0312 l -1,5.34375 -0.21875,1.25 1.28125,0 1.9375,0 0.875,0 0.15625,-0.875 0.5625,-3.03125 c 0.0311,0.28473 0.0667,0.57082 0.125,0.84375 0.1282,0.60012 0.32543,1.16895 0.625,1.65625 l 0.0312,0 c 0.31945,0.496 0.74573,0.91852 1.25,1.21875 l 0,0.0312 0.0312,0 c 0.54672,0.30512 1.1645,0.4375 1.8125,0.4375 0.63024,0 1.24217,-0.17505 1.78125,-0.46875 l 0.21875,0.46875 0.84375,-0.15625 1.75,-0.3125 1.15625,-0.21875 -0.34375,-1.125 c -0.10511,-0.35054 -0.17318,-0.68864 -0.21875,-1 -0.0465,-0.31763 -0.0938,-0.62152 -0.0937,-0.9375 0,-0.24969 0.0127,-0.5331 0.0312,-0.8125 7.1e-4,-0.0107 -7.4e-4,-0.0206 0,-0.0312 0.0284,-0.28055 0.0797,-0.54461 0.125,-0.8125 0.002,-0.0101 -0.002,-0.0213 0,-0.0312 l 2.21875,-11.5625 0.28125,-1.53125 z m -113.5,1.0625 -1.5625,0.34375 -1.46875,0.28125 -0.6875,0.15625 -0.125,0.6875 -2.75,14.46875 1.03125,0.1875 0,1.0625 1.40625,0 0.875,0 0.15625,-0.875 0.5,-2.53125 c 0.008,0.0149 0.023,0.0163 0.0312,0.0312 0.45526,0.79935 0.85629,1.68648 1.1875,2.65625 l 0.25,0.71875 0.75,0 1.34375,0 0.15625,0 1.125,0 0.34375,0 1.0625,0 0,-1.0625 0.8125,0.15625 0.3125,0.21875 c 0.0849,0.0614 0.20928,0.12709 0.34375,0.21875 l 0.0312,0.0312 0.0625,0.0312 c 0.19562,0.10606 0.39141,0.19267 0.625,0.28125 l 0.0312,0 c 0.26686,0.0965 0.53967,0.19168 0.84375,0.25 0.0104,0.002 0.0208,-0.002 0.0312,0 0.36109,0.0789 0.7296,0.125 1.125,0.125 0.56751,0 1.11033,-0.0976 1.625,-0.28125 0.49579,-0.16084 0.92995,-0.43677 1.3125,-0.78125 l 0.1875,0.125 c 0.0849,0.0614 0.17805,0.1271 0.3125,0.21875 l 0.0625,0.0312 0.0312,0.0312 c 0.19562,0.10606 0.42266,0.19267 0.65625,0.28125 0.26687,0.0965 0.53967,0.19168 0.84375,0.25 0.0104,0.002 0.0208,-0.002 0.0312,0 0.36109,0.0789 0.7296,0.125 1.125,0.125 0.55709,0 1.11847,-0.10444 1.625,-0.28125 0.009,-0.003 0.0225,0.003 0.0312,0 0.50778,-0.16869 0.9567,-0.451 1.34375,-0.8125 l 0,-0.0312 c 0.40714,-0.37866 0.76043,-0.84789 0.96875,-1.375 0.21832,-0.55257 0.31249,-1.14269 0.3125,-1.78125 -10e-6,-0.43349 -0.0749,-0.83238 -0.1875,-1.21875 -0.002,-0.009 0.003,-0.0222 0,-0.0312 -0.0992,-0.35767 -0.24198,-0.70322 -0.46875,-1 -0.008,-0.0122 -0.0228,-0.0192 -0.0312,-0.0312 -0.18908,-0.26515 -0.42801,-0.48939 -0.6875,-0.6875 -0.006,-0.005 0.006,-0.0269 0,-0.0312 -0.0175,-0.0144 -0.0447,-0.017 -0.0625,-0.0312 -0.23657,-0.18953 -0.46906,-0.36718 -0.75,-0.53125 l -0.0312,0 c -0.35052,-0.20061 -0.57718,-0.36161 -0.6875,-0.46875 -0.0319,-0.0346 -0.0312,-0.0305 -0.0312,-0.15625 0,-0.14471 0.0229,-0.19576 0.0312,-0.21875 10e-4,-0.003 -5.5e-4,-0.0301 0,-0.0312 0.028,-0.0478 0.0623,-0.0937 0.0625,-0.0937 0.0545,-0.0431 0.10629,-0.0492 0.15625,-0.0625 0.10555,-0.0281 0.21563,-0.0625 0.3125,-0.0625 0.27525,1e-5 0.47674,0.0591 0.65625,0.125 0.26392,0.0969 0.44495,0.19288 0.4375,0.1875 l 1.125,0.8125 0.46875,-1.3125 0.53125,-1.4375 0.28125,-0.75 -0.65625,-0.46875 c -0.33366,-0.24117 -0.6343,-0.34624 -1.03125,-0.46875 -0.009,-0.003 -0.0219,0.003 -0.0312,0 -0.49143,-0.16846 -1.03071,-0.24999 -1.59375,-0.25 -1.17248,1e-5 -2.2368,0.37414 -3,1.125 l -0.53125,-0.40625 c -0.32586,-0.23555 -0.64801,-0.35009 -1.03125,-0.46875 -0.0236,-0.007 -0.0382,-0.0238 -0.0625,-0.0312 l 0,0.0312 c -0.48348,-0.1616 -1.01024,-0.24999 -1.5625,-0.25 -1.2216,1e-5 -2.32515,0.40329 -3.09375,1.21875 l -0.0312,0 c -0.11979,0.12816 -0.21244,0.26322 -0.3125,0.40625 l 0.0312,-0.125 0.25,-1.25 -0.875,0 c 0.27522,-0.12534 0.59284,-0.17068 0.78125,-0.375 l 0.0312,0 c 0.3917,-0.44839 0.59373,-1.08103 0.59375,-1.65625 -1e-5,-0.4881 -0.14337,-1.0229 -0.5,-1.4375 -0.006,-0.007 -0.0252,0.007 -0.0312,0 -0.003,-0.003 0.003,-0.0281 0,-0.0312 -0.32451,-0.36561 -0.86815,-0.62498 -1.375,-0.625 -0.57923,2e-5 -1.09704,0.35204 -1.4375,0.75 l -0.0312,0 c -0.39022,0.45845 -0.5625,1.05511 -0.5625,1.625 0,0.48399 0.11791,1.02327 0.46875,1.4375 l 0.0312,0 c 0.16453,0.18208 0.44881,0.2044 0.6875,0.3125 l -0.46875,0 -0.875,0 -1.03125,0 -1.65625,0 -0.5625,0 -0.3125,0.4375 c -0.14928,0.21109 -0.36553,0.46513 -0.625,0.78125 -0.10287,0.12515 -0.23004,0.27372 -0.34375,0.40625 l 1,-5.25 0.3125,-1.5625 z m 24.03125,1.875 -0.21875,0.78125 c -0.26156,0.95459 -0.53114,1.96331 -0.8125,3.03125 l 0,0.0312 c -0.27103,1.06678 -0.56275,2.15129 -0.84375,3.28125 -0.27141,1.11923 -0.54118,2.26785 -0.8125,3.4375 -0.26164,1.15857 -0.50845,2.32271 -0.75,3.46875 l -0.28125,1.28125 1.3125,0 1.4375,0 0.875,0 0.15625,-0.84375 c 0.37054,-1.7395 0.76676,-3.46533 1.15625,-5.15625 0.0315,0.20788 0.0637,0.42077 0.0937,0.625 0.0792,0.52582 0.15978,1.0085 0.21875,1.46875 l 0,0.0312 c 0.0694,0.45142 0.11763,0.83195 0.15625,1.125 l 0.125,0.90625 0.9375,0 0.25,0 0.0312,0.1875 0.0937,-0.1875 0.78125,0 0.65625,0 0.28125,-0.5625 c 0.148,-0.28712 0.35419,-0.67037 0.59375,-1.125 0.23843,-0.46507 0.50228,-0.97059 0.78125,-1.5 0.1062,-0.20635 0.23462,-0.41493 0.34375,-0.625 -0.2152,1.43876 -0.4374,2.88744 -0.6875,4.40625 l -0.21875,1.25 1.25,0 1.1875,0 -0.0937,0.3125 -0.46875,1.4375 -0.21875,0.65625 0.5,0.46875 c 0.27911,0.25678 0.56127,0.38416 0.875,0.5 0.36603,0.13518 0.76444,0.1875 1.15625,0.1875 0.68653,0 1.34378,-0.16737 1.9375,-0.46875 0.005,-0.006 0.0248,0.003 0.0312,0 0.53814,-0.26919 1.04516,-0.63945 1.46875,-1.09375 l 0,-0.0312 0.0312,0 c 0.42489,-0.44107 0.80804,-0.95305 1.15625,-1.53125 0.33275,-0.53939 0.67044,-1.10635 1,-1.71875 0.43752,-0.83032 0.8241,-1.70049 1.1875,-2.59375 0.36468,-0.88433 0.71382,-1.75521 1,-2.59375 0.003,-0.009 -0.003,-0.0224 0,-0.0312 0.29173,-0.8416 0.54524,-1.64967 0.75,-2.375 0.20324,-0.73284 0.35308,-1.33826 0.46875,-1.84375 l 0.3125,-1.28125 -1.34375,0 -1.4375,0 -0.875,0 -0.1875,0.84375 c -0.0631,0.34211 -0.15551,0.84805 -0.3125,1.46875 -0.15402,0.5968 -0.35841,1.268 -0.59375,2 -0.10708,0.3475 -0.24943,0.72744 -0.375,1.09375 -0.0182,-0.15584 -0.0453,-0.31352 -0.0625,-0.46875 -0.0691,-0.72397 -0.11697,-1.40423 -0.15625,-2.0625 -0.0394,-0.67256 -0.0528,-1.29051 -0.0625,-1.84375 l -0.0312,-1.03125 -1.03125,0 -1.4375,0 -0.4375,0 c 0.0727,-0.71835 0.16226,-1.44573 0.21875,-2.15625 l 0.0937,-1.15625 -1.15625,0 -1.40625,0 -0.59375,0 -0.3125,0.53125 c -0.33785,0.56992 -0.70035,1.23249 -1.125,2 l -0.0312,0 c -0.41412,0.75393 -0.83779,1.56465 -1.28125,2.40625 -0.32411,0.60574 -0.64467,1.20678 -0.96875,1.8125 -0.0721,-0.48543 -0.13634,-0.98339 -0.21875,-1.46875 -0.002,-0.0106 0.002,-0.0208 0,-0.0312 -0.1285,-0.82361 -0.26769,-1.62207 -0.40625,-2.375 -0.002,-0.0114 0.002,-0.0199 0,-0.0312 -0.13006,-0.75733 -0.28357,-1.43084 -0.40625,-2 l -0.15625,-0.84375 -0.875,0 -1.40625,0 -0.8125,0 z m 24.84375,1.15625 4.71875,0 0,0.0312 -3.96875,0 -0.75,0 0,-0.0312 z m -23.375,1.5 c 0.0361,0.19913 0.0567,0.34593 0.0937,0.5625 l 0,0.0312 c 0.0257,0.1393 0.0371,0.29551 0.0625,0.4375 l -0.4375,-0.0312 c 0.091,-0.3425 0.19245,-0.67007 0.28125,-1 z m 7.25,0.34375 c -0.0298,0.3111 -0.0615,0.62478 -0.0937,0.9375 l -0.21875,-0.0312 -0.15625,-0.0937 c 0.0453,-0.0829 0.11134,-0.16824 0.15625,-0.25 0.11916,-0.21538 0.20088,-0.36398 0.3125,-0.5625 z m 32.8125,1.34375 c 0.14233,0 0.16535,0.11043 0.28125,0.125 -0.12898,-0.031 -0.24575,-0.0858 -0.375,-0.0937 0.0379,-10e-4 0.0546,-0.0312 0.0937,-0.0312 z m 9.125,0.0625 c 0.18117,0 0.1763,0.10601 0.3125,0.125 -0.163,-0.045 -0.3346,-0.0784 -0.5,-0.0937 0.0677,-0.002 0.11799,-0.0312 0.1875,-0.0312 z m 24,0 c 0.18496,0 0.17429,0.10521 0.3125,0.125 -0.16702,-0.0475 -0.33013,-0.0775 -0.5,-0.0937 0.0677,-0.002 0.11799,-0.0312 0.1875,-0.0312 z m 10.40625,0.15625 0.78125,0.21875 -0.15625,0.90625 -0.875,-0.15625 0.25,-0.96875 z m -9.625,0.125 c 0.15084,0.0809 0.43137,0.0865 0.53125,0.21875 0.0597,0.079 0.0433,0.2791 0.0937,0.375 -0.17257,-0.24034 -0.37186,-0.45903 -0.625,-0.59375 z m -23.96875,0.0312 c 0.14207,0.0798 0.43529,0.0605 0.53125,0.1875 0.0552,0.0731 0.0464,0.25617 0.0937,0.34375 -0.16667,-0.22614 -0.38535,-0.40077 -0.625,-0.53125 z m -11.21875,0.0312 c -0.0947,0.0331 -0.19404,0.0717 -0.28125,0.125 0.0225,-0.0175 0.0396,-0.0454 0.0625,-0.0625 0.0593,-0.0442 0.14434,-0.046 0.21875,-0.0625 z m 27.09375,0 c 0.0212,0.0222 0.0731,0.007 0.0937,0.0312 0.0135,0.0158 0.0184,0.0463 0.0312,0.0625 -0.0387,-0.036 -0.0835,-0.0618 -0.125,-0.0937 z m -24.625,0.15625 c 0.0627,0.0679 0.1893,0.0388 0.25,0.125 0.0298,0.0415 0.0346,0.14284 0.0625,0.1875 -0.0947,-0.11479 -0.19462,-0.21842 -0.3125,-0.3125 z m -63.875,0.3125 -1.375,7.125 c -0.20915,-0.48718 -0.43697,-0.97239 -0.6875,-1.4375 -0.004,-0.008 0.004,-0.0229 0,-0.0312 -0.25856,-0.50832 -0.55102,-0.98595 -0.84375,-1.4375 -0.005,-0.008 0.005,-0.0236 0,-0.0312 -0.10413,-0.16998 -0.23753,-0.28168 -0.34375,-0.4375 0.1223,-0.12363 0.24517,-0.20709 0.375,-0.34375 l 0,-0.0312 c 0.37683,-0.38706 0.7589,-0.77578 1.125,-1.1875 l 0,-0.0312 c 0.36993,-0.42903 0.73187,-0.8317 1.0625,-1.25 0.26979,-0.33098 0.48577,-0.61255 0.6875,-0.90625 z m 87.1875,1.15625 c -1e-5,0.37447 -0.0159,0.43643 -0.34375,0.625 -0.0821,0.0481 -0.47397,0.0755 -0.625,0.125 0.0434,-0.065 0.0807,-0.16272 0.125,-0.21875 0.15005,-0.18985 0.3057,-0.31456 0.46875,-0.40625 0.13466,-0.0757 0.24449,-0.12122 0.375,-0.125 z m -24.59375,0.0312 c -0.004,-0.003 -0.0225,0.0176 0,0.0625 0.0904,0.17459 0.18749,0.58136 0.1875,1.15625 -1e-5,0.43676 -0.0507,0.89645 -0.15625,1.40625 -0.10312,0.49814 -0.25105,0.95058 -0.4375,1.34375 -0.16564,0.35623 -0.36696,0.63086 -0.59375,0.84375 -0.15545,0.14422 -0.20673,0.15625 -0.375,0.15625 -0.24726,0 -0.11891,0.0408 -0.15625,-0.0312 -0.0904,-0.17459 -0.1875,-0.5501 -0.1875,-1.125 0,-0.45241 0.052,-0.91458 0.15625,-1.40625 0.1044,-0.50431 0.25764,-0.94551 0.4375,-1.34375 0.17922,-0.37789 0.35438,-0.65066 0.5625,-0.84375 l 0.0312,0 c 0.17235,-0.16177 0.24937,-0.18749 0.40625,-0.1875 0.11899,0 0.12912,-0.0278 0.125,-0.0312 z m -55.75,0.21875 c 0.27524,10e-6 0.508,0.0591 0.6875,0.125 0.26391,0.0969 0.4137,0.19288 0.40625,0.1875 l 1.125,0.78125 c 0.0199,0.28243 0.0457,0.54934 0.125,0.8125 0.11068,0.35013 0.28358,0.67541 0.5,0.96875 l 0,0.0312 0.0312,0 c 0.20701,0.26193 0.45061,0.49109 0.71875,0.6875 0.21213,0.15539 0.41148,0.31985 0.65625,0.46875 0.008,0.005 0.0234,-0.005 0.0312,0 0.19999,0.13281 0.37688,0.24641 0.5,0.34375 l 0.0312,0.0312 0.0312,0.0312 c 0.10763,0.0721 0.15113,0.14568 0.1875,0.1875 0.0249,0.0287 0.0571,0.015 0.0625,0.0312 l 0,0.0312 c -10e-4,-0.004 -1e-5,0.059 0,0.15625 -1e-5,0.15847 -0.0224,0.20253 -0.0312,0.21875 l 0,0.0312 c -0.0257,0.0488 -0.0381,0.0461 -0.0625,0.0625 l -0.0312,0 c -0.0342,0.0243 -0.0813,0.0693 -0.1875,0.0937 -0.13232,0.0319 -0.28052,0.0625 -0.40625,0.0625 -0.15315,0 -0.28136,-0.0324 -0.40625,-0.0625 -0.16011,-0.0386 -0.28361,-0.0733 -0.40625,-0.125 -0.12659,-0.0565 -0.22698,-0.10799 -0.3125,-0.15625 -0.0177,-0.0112 -0.0152,-0.021 -0.0312,-0.0312 -0.0834,-0.0536 -0.15247,-0.0997 -0.1875,-0.125 l -0.65625,-0.5 c -0.0175,-0.31348 -0.0718,-0.61629 -0.15625,-0.90625 -0.002,-0.009 0.003,-0.022 0,-0.0312 -0.0989,-0.36235 -0.23927,-0.69965 -0.46875,-1 -0.008,-0.0122 -0.0228,-0.0192 -0.0312,-0.0312 -0.18908,-0.26517 -0.42799,-0.48938 -0.6875,-0.6875 -0.006,-0.005 0.006,-0.0269 0,-0.0312 -0.0171,-0.0141 -0.0451,-0.0174 -0.0625,-0.0312 -0.2369,-0.18992 -0.49977,-0.36688 -0.78125,-0.53125 -0.35052,-0.20061 -0.57719,-0.36161 -0.6875,-0.46875 -0.0319,-0.0346 -0.0312,-0.0305 -0.0312,-0.15625 -10e-6,-0.16503 0.0268,-0.24061 0.0312,-0.25 0.023,-0.0366 0.0623,-0.0937 0.0625,-0.0937 0.0545,-0.0431 0.10629,-0.0492 0.15625,-0.0625 0.10554,-0.0281 0.18438,-0.0625 0.28125,-0.0625 z m 73.0625,0.0312 1.875,0 0.3125,0 c -0.10139,0.26696 -0.20292,0.5287 -0.28125,0.8125 -0.25056,0.93591 -0.375,1.90688 -0.375,2.90625 0,0.0105 -5e-5,0.0208 0,0.0312 l -1.125,0.625 c -0.14754,0.0786 -0.33347,0.16886 -0.5625,0.25 -0.15636,0.0554 -0.29389,0.0625 -0.46875,0.0625 -0.0898,0 -0.0847,0.006 -0.125,0 -0.006,-0.0749 -0.0312,-0.14386 -0.0312,-0.21875 0,-0.11679 0.0136,-0.24892 0.0312,-0.40625 l 0,-0.0312 c 0.0175,-0.16617 0.043,-0.37363 0.0937,-0.65625 l 0.65625,-3.375 z m 24.78125,0 -0.53125,2.78125 c -0.0564,0.31404 -0.11132,0.64156 -0.15625,0.96875 l 0,0.0312 c -0.0199,0.19353 -0.019,0.37649 -0.0312,0.5625 -0.10622,0.11185 -0.21948,0.2513 -0.3125,0.3125 l -0.0312,0 c -0.0776,0.0532 -0.14923,0.0937 -0.3125,0.0937 -0.0365,0 -0.0204,0.002 -0.0312,0 -0.009,-0.006 -0.0229,-0.0238 -0.0312,-0.0312 -0.0215,-0.0195 -0.0338,-0.0394 -0.0625,-0.0937 -0.0435,-0.0826 -0.0898,-0.22591 -0.125,-0.375 -0.0333,-0.21062 -0.0625,-0.454 -0.0625,-0.71875 0,-0.526 0.0605,-1.01812 0.1875,-1.5 0.13544,-0.47978 0.30901,-0.8855 0.53125,-1.21875 0.21798,-0.33707 0.47911,-0.57863 0.75,-0.75 0.068,-0.0453 0.15197,-0.0313 0.21875,-0.0625 z m -73.125,0.625 c 0.0709,0.81253 0.14205,1.61057 0.25,2.40625 0.21858,1.54412 0.518,2.98954 0.84375,4.40625 -0.24356,0.34579 -0.48176,0.70148 -0.71875,0.90625 l -0.0312,0 c -0.21108,0.18693 -0.38394,0.25 -0.75,0.25 -0.0829,0 -0.13345,0.0102 -0.15625,0 l -0.0312,-0.0312 -0.0312,0 -0.4375,-0.4375 0.0625,-0.375 c 0.34206,-2.22755 0.65575,-4.44116 0.9375,-6.65625 0.0207,-0.15839 0.0422,-0.31075 0.0625,-0.46875 z m -28.625,1 c 0.0183,0.0854 0.0373,0.16619 0.0625,0.25 0.11068,0.35013 0.28361,0.67542 0.5,0.96875 l 0,0.0312 c 0.20699,0.26189 0.4506,0.49108 0.71875,0.6875 0.21224,0.15546 0.44258,0.31978 0.6875,0.46875 0.008,0.005 0.0236,-0.005 0.0312,0 0.19971,0.13265 0.34576,0.24651 0.46875,0.34375 l 0.0312,0.0312 0.0312,0.0312 c 0.10763,0.0721 0.18235,0.14564 0.21875,0.1875 0.025,0.0287 0.0259,0.015 0.0312,0.0312 l 0,0.0312 0.0312,0 c -0.001,-0.004 -1e-5,0.059 0,0.15625 -1e-5,0.15847 -0.0224,0.20255 -0.0312,0.21875 l 0,0.0312 c -0.0257,0.0488 -0.0381,0.0461 -0.0625,0.0625 l -0.0312,0 c -0.0342,0.0243 -0.0813,0.0693 -0.1875,0.0937 l -0.0312,0 c -0.13231,0.0319 -0.24927,0.0625 -0.375,0.0625 -0.15315,0 -0.28136,-0.0324 -0.40625,-0.0625 -0.14953,-0.036 -0.28947,-0.0774 -0.40625,-0.125 -0.01,-0.004 -0.0215,0.004 -0.0312,0 -0.11379,-0.0517 -0.20245,-0.11178 -0.28125,-0.15625 -0.0159,-0.0101 -0.0165,-0.0218 -0.0312,-0.0312 -0.086,-0.0552 -0.18387,-0.0998 -0.21875,-0.125 l -1.09375,-0.8125 -0.125,0.34375 0.5,-2.71875 z m 87.625,0.3125 -0.90625,4.8125 -0.125,-1.625 -0.15625,-1.59375 -1.40625,0.71875 c -0.60371,0.31451 -1.13928,0.46875 -1.6875,0.46875 -0.42246,0 -0.55987,-0.0958 -0.625,-0.15625 0.32321,-0.0345 0.64977,-0.0417 0.96875,-0.0937 0.78532,-0.12616 1.50772,-0.38162 2.15625,-0.75 l 0,0.0312 c 0.68877,-0.38343 1.2654,-0.95315 1.6875,-1.625 0.0367,-0.0584 0.0605,-0.12711 0.0937,-0.1875 z m 10.84375,3.8125 c 0.16935,0.27888 0.38608,0.52649 0.65625,0.71875 l 0,0.0312 c 0.29962,0.20068 0.65437,0.24473 1,0.28125 -0.0708,0.007 -0.1059,0.0312 -0.1875,0.0312 -0.36348,0 -0.59629,-0.053 -0.78125,-0.15625 -0.22743,-0.13541 -0.37724,-0.29213 -0.53125,-0.53125 -0.0596,-0.0969 -0.10517,-0.25531 -0.15625,-0.375 z m -41.9375,0.21875 c 0.0953,0.11238 0.19466,0.22112 0.3125,0.3125 -0.0633,-0.0683 -0.18883,-0.0381 -0.25,-0.125 -0.0299,-0.0424 -0.0345,-0.14212 -0.0625,-0.1875 z m -24.71875,0.0312 0.15625,0.0625 c -0.052,0.10196 -0.1031,0.21164 -0.15625,0.3125 -0.0374,0.0694 -0.0877,0.11919 -0.125,0.1875 -0.0377,-0.17074 -0.0576,-0.3584 -0.0937,-0.53125 l 0.21875,-0.0312 z m 42.71875,0.0312 c 0.18936,0.23312 0.41335,0.43082 0.65625,0.5625 l 0.0312,0 0.0625,0.0312 c 0.27184,0.11453 0.54208,0.14024 0.8125,0.15625 -0.11329,0.009 -0.18225,0.0312 -0.3125,0.0312 -0.73367,-10e-6 -1.0051,-0.18376 -1.15625,-0.375 -0.0599,-0.0806 -0.0457,-0.29872 -0.0937,-0.40625 z m 6.9375,0.1875 c 0.21004,0.15771 0.40934,0.31858 0.65625,0.40625 -0.0593,-0.0221 -0.1673,-0.005 -0.21875,-0.0312 -0.18881,-0.0956 -0.30029,-0.24074 -0.4375,-0.375 z m -21.875,0.0625 c -0.018,0.0136 -0.013,0.0491 -0.0312,0.0625 -0.0771,0.0575 -0.20028,0.0471 -0.28125,0.0937 0.1095,-0.0488 0.2103,-0.094 0.3125,-0.15625 z m 24.96875,0.25 c -0.11224,0.042 -0.14238,0.0811 -0.28125,0.125 -0.11719,0.0371 -0.30239,0.0365 -0.4375,0.0625 0.24595,-0.0242 0.47576,-0.12962 0.71875,-0.1875 z m -2.1875,0.15655 c 0.1895,0.0497 0.39268,0.10373 0.59375,0.125 -0.26585,0 -0.40302,-0.0792 -0.59375,-0.125 z m -24.53125,0.0312 c 0.0834,0.0167 0.16665,0.0551 0.25,0.0625 -0.0268,5.7e-4 -0.0351,0.0312 -0.0625,0.0312 -0.0977,0 -0.10265,-0.087 -0.1875,-0.0937 z"
       id="path3924"
       inkscape:connector-curvature="0" />
    <path
       inkscape:connector-curvature="0"
       id="path4701"
       style="font-size:16.90694046px;font-style:italic;font-variant:normal;font-weight:normal;font-stretch:normal;text-align:start;line-height:125%;letter-spacing:0px;word-spacing:0px;writing-mode:lr-tb;text-anchor:start;fill:#ff2a7f;fill-opacity:1;stroke:none;font-family:Ubuntu;-inkscape-font-specification:Ubuntu Italic"
       d="m 301.13381,572.78143 2.75068,-14.45287 1.45801,-0.30427 -1.68347,8.80484 c 0.33067,-0.30426 0.67138,-0.63389 1.02211,-0.98888 0.35072,-0.36765 0.6814,-0.72897 0.99205,-1.08397 0.32065,-0.35497 0.61126,-0.69093 0.8718,-1.00789 0.27055,-0.32962 0.491,-0.61487 0.66136,-0.85577 l 1.65342,0 c -0.21044,0.32964 -0.481,0.6973 -0.81168,1.10299 -0.32067,0.4057 -0.66137,0.81773 -1.02211,1.2361 -0.36075,0.4057 -0.72651,0.79872 -1.09727,1.17905 -0.36075,0.38034 -0.68642,0.70363 -0.97701,0.96986 0.27055,0.31696 0.54111,0.6973 0.81168,1.14102 0.28057,0.43106 0.54612,0.8938 0.79664,1.38824 0.26053,0.48177 0.49602,0.97621 0.70646,1.48332 0.21043,0.49444 0.38579,0.95719 0.52608,1.38823 l -1.51813,0 c -0.35073,-1.02691 -0.7716,-1.97141 -1.26261,-2.83352 -0.481,-0.8621 -0.99205,-1.56572 -1.53317,-2.11088 l -0.94695,4.9444 -1.39789,0"
       inkscape:export-filename="/home/special-k/38_1.png"
       inkscape:export-xdpi="300"
       inkscape:export-ydpi="300" />
    <path
       inkscape:connector-curvature="0"
       id="path3926"
       style="font-size:16.90694046px;font-style:italic;font-variant:normal;font-weight:normal;font-stretch:normal;text-align:start;line-height:125%;letter-spacing:0px;word-spacing:0px;writing-mode:lr-tb;text-anchor:start;fill:#ff2a7f;fill-opacity:1;stroke:none;font-family:Ubuntu;-inkscape-font-specification:Ubuntu Italic"
       d="m 310.31144,572.78143 -1.39789,0 1.87888,-9.88881 1.39789,0 -1.87888,9.88881 m 1.62335,-11.6764 c -0.23048,10e-6 -0.42588,-0.0888 -0.58621,-0.26623 -0.15032,-0.17748 -0.22547,-0.4247 -0.22547,-0.74167 0,-0.40569 0.10021,-0.72263 0.30063,-0.95084 0.2004,-0.24087 0.42588,-0.36131 0.67639,-0.36132 0.23048,10e-6 0.42588,0.095 0.58621,0.28525 0.16033,0.1775 0.2405,0.43107 0.24051,0.76068 -10e-6,0.38035 -0.10523,0.69095 -0.31566,0.93183 -0.21044,0.22821 -0.43591,0.34231 -0.6764,0.3423"
       inkscape:export-filename="/home/special-k/38_1.png"
       inkscape:export-xdpi="300"
       inkscape:export-ydpi="300" />
    <path
       inkscape:connector-curvature="0"
       id="path3928"
       style="font-size:16.90694046px;font-style:italic;font-variant:normal;font-weight:normal;font-stretch:normal;text-align:start;line-height:125%;letter-spacing:0px;word-spacing:0px;writing-mode:lr-tb;text-anchor:start;fill:#ff2a7f;fill-opacity:1;stroke:none;font-family:Ubuntu;-inkscape-font-specification:Ubuntu Italic"
       d="m 314.59599,571.54533 c 0.21043,0 0.42087,-0.0253 0.63131,-0.076 0.22044,-0.0507 0.41084,-0.13311 0.57117,-0.24722 0.17035,-0.1141 0.30563,-0.26623 0.40584,-0.4564 0.11023,-0.20285 0.16534,-0.45007 0.16535,-0.74166 -1e-5,-0.19017 -0.0251,-0.35499 -0.0751,-0.49444 -0.0501,-0.15214 -0.13027,-0.2916 -0.24049,-0.41839 -0.11024,-0.12677 -0.25053,-0.2472 -0.42087,-0.36132 -0.16034,-0.12677 -0.35574,-0.26622 -0.58621,-0.41837 -0.23048,-0.13945 -0.44091,-0.2789 -0.63131,-0.41836 -0.19039,-0.13946 -0.36074,-0.30427 -0.51105,-0.49445 -0.14029,-0.19017 -0.25052,-0.41203 -0.33068,-0.6656 -0.0802,-0.26623 -0.12025,-0.58317 -0.12025,-0.95084 0,-0.95084 0.27055,-1.71152 0.81168,-2.28204 0.54111,-0.58317 1.32774,-0.87477 2.35987,-0.87478 0.48099,1e-5 0.90185,0.0634 1.26261,0.19017 0.37076,0.11411 0.62629,0.22188 0.76658,0.32329 l -0.52609,1.44529 c -0.1403,-0.10145 -0.36576,-0.20918 -0.67639,-0.32329 -0.31065,-0.11409 -0.65637,-0.17114 -1.03714,-0.17115 -0.1904,10e-6 -0.3808,0.0253 -0.57119,0.076 -0.19039,0.0507 -0.36575,0.13946 -0.52608,0.26623 -0.15031,0.11411 -0.27557,0.27258 -0.37578,0.47543 -0.0902,0.19017 -0.13528,0.42471 -0.13527,0.70362 -1e-5,0.34232 0.10521,0.62757 0.31564,0.85577 0.21043,0.21552 0.52609,0.44373 0.94696,0.68461 0.26054,0.15214 0.49101,0.31061 0.69143,0.47542 0.21043,0.15214 0.38579,0.32964 0.52608,0.53247 0.15031,0.19018 0.26054,0.41838 0.33068,0.68461 0.0802,0.26624 0.12025,0.5832 0.12026,0.95085 -10e-6,0.53248 -0.0802,1.00156 -0.2405,1.40725 -0.16034,0.40571 -0.3858,0.74167 -0.67639,1.0079 -0.2806,0.26624 -0.61628,0.46275 -1.00709,0.58953 -0.39081,0.13946 -0.81668,0.20918 -1.27764,0.20918 -0.34071,0 -0.65135,-0.0317 -0.93192,-0.095 -0.27056,-0.0507 -0.51106,-0.1141 -0.72149,-0.19017 -0.20042,-0.076 -0.37077,-0.15214 -0.51106,-0.2282 -0.13027,-0.0888 -0.23047,-0.15848 -0.30062,-0.20919 l 0.54112,-1.44529 c 0.0701,0.0507 0.16534,0.11411 0.28559,0.19017 0.13027,0.076 0.28058,0.15214 0.45093,0.22821 0.18037,0.076 0.37577,0.13945 0.58621,0.19016 0.21044,0.0507 0.43089,0.076 0.66137,0.076"
       inkscape:export-filename="/home/special-k/38_1.png"
       inkscape:export-xdpi="300"
       inkscape:export-ydpi="300" />
    <path
       inkscape:connector-curvature="0"
       id="path3930"
       style="font-size:16.90694046px;font-style:italic;font-variant:normal;font-weight:normal;font-stretch:normal;text-align:start;line-height:125%;letter-spacing:0px;word-spacing:0px;writing-mode:lr-tb;text-anchor:start;fill:#ff2a7f;fill-opacity:1;stroke:none;font-family:Ubuntu;-inkscape-font-specification:Ubuntu Italic"
       d="m 320.79043,571.54533 c 0.21043,0 0.42086,-0.0253 0.6313,-0.076 0.22045,-0.0507 0.41085,-0.13311 0.57118,-0.24722 0.17035,-0.1141 0.30563,-0.26623 0.40584,-0.4564 0.11022,-0.20285 0.16533,-0.45007 0.16534,-0.74166 -1e-5,-0.19017 -0.0251,-0.35499 -0.0751,-0.49444 -0.0501,-0.15214 -0.13027,-0.2916 -0.2405,-0.41839 -0.11023,-0.12677 -0.25052,-0.2472 -0.42086,-0.36132 -0.16034,-0.12677 -0.35574,-0.26622 -0.58622,-0.41837 -0.23048,-0.13945 -0.44091,-0.2789 -0.6313,-0.41836 -0.19039,-0.13946 -0.36075,-0.30427 -0.51105,-0.49445 -0.1403,-0.19017 -0.25053,-0.41203 -0.33069,-0.6656 -0.0802,-0.26623 -0.12025,-0.58317 -0.12025,-0.95084 0,-0.95084 0.27056,-1.71152 0.81168,-2.28204 0.54111,-0.58317 1.32774,-0.87477 2.35987,-0.87478 0.48099,1e-5 0.90186,0.0634 1.26261,0.19017 0.37076,0.11411 0.62628,0.22188 0.76658,0.32329 l -0.52608,1.44529 c -0.1403,-0.10145 -0.36576,-0.20918 -0.6764,-0.32329 -0.31065,-0.11409 -0.65636,-0.17114 -1.03714,-0.17115 -0.1904,10e-6 -0.38079,0.0253 -0.57118,0.076 -0.1904,0.0507 -0.36576,0.13946 -0.52609,0.26623 -0.15031,0.11411 -0.27557,0.27258 -0.37577,0.47543 -0.0902,0.19017 -0.13529,0.42471 -0.13529,0.70362 0,0.34232 0.10522,0.62757 0.31566,0.85577 0.21043,0.21552 0.52608,0.44373 0.94696,0.68461 0.26052,0.15214 0.491,0.31061 0.69143,0.47542 0.21042,0.15214 0.38578,0.32964 0.52608,0.53247 0.1503,0.19018 0.26053,0.41838 0.33068,0.68461 0.0802,0.26624 0.12024,0.5832 0.12025,0.95085 -10e-6,0.53248 -0.0802,1.00156 -0.24049,1.40725 -0.16034,0.40571 -0.38581,0.74167 -0.67641,1.0079 -0.28058,0.26624 -0.61627,0.46275 -1.00707,0.58953 -0.39082,0.13946 -0.8167,0.20918 -1.27764,0.20918 -0.34071,0 -0.65135,-0.0317 -0.93193,-0.095 -0.27056,-0.0507 -0.51106,-0.1141 -0.72148,-0.19017 -0.20042,-0.076 -0.37077,-0.15214 -0.51106,-0.2282 -0.13027,-0.0888 -0.23048,-0.15848 -0.30062,-0.20919 l 0.54111,-1.44529 c 0.0702,0.0507 0.16535,0.11411 0.28559,0.19017 0.13027,0.076 0.28058,0.15214 0.45093,0.22821 0.18037,0.076 0.37578,0.13945 0.58621,0.19016 0.21044,0.0507 0.43089,0.076 0.66137,0.076"
       inkscape:export-filename="/home/special-k/38_1.png"
       inkscape:export-xdpi="300"
       inkscape:export-ydpi="300" />
    <path
       inkscape:connector-curvature="0"
       style="font-size:16.90694046px;font-style:italic;font-variant:normal;font-weight:normal;font-stretch:normal;text-align:start;line-height:125%;letter-spacing:0px;word-spacing:0px;writing-mode:lr-tb;text-anchor:start;fill:#ff5555;fill-opacity:1;stroke:none;font-family:Ubuntu;-inkscape-font-specification:Ubuntu Italic"
       d="m 339.12197,562.43622 c -0.16034,0.27893 -0.36076,0.64025 -0.60125,1.08396 -0.2405,0.44374 -0.50103,0.93184 -0.78162,1.46431 -0.28058,0.53248 -0.57118,1.09031 -0.8718,1.67349 -0.30063,0.57051 -0.59123,1.12834 -0.8718,1.67349 -0.28059,0.53248 -0.54112,1.03325 -0.78161,1.50234 -0.2405,0.45641 -0.43591,0.83041 -0.58621,1.122 l -1.17242,0 c -0.0401,-0.30427 -0.0952,-0.68461 -0.16534,-1.14102 -0.0601,-0.46907 -0.13028,-0.96986 -0.21044,-1.50234 -0.0802,-0.54515 -0.16535,-1.10297 -0.25553,-1.67349 -0.0802,-0.58318 -0.16535,-1.14101 -0.25552,-1.67349 -0.0802,-0.53247 -0.15533,-1.01422 -0.22547,-1.44529 -0.0701,-0.44371 -0.13027,-0.80503 -0.18037,-1.08396 -0.42088,1.63546 -0.83172,3.32163 -1.23255,5.0585 -0.40083,1.73688 -0.79164,3.49912 -1.17242,5.28671 l -1.44298,0 c 0.24049,-1.14101 0.49101,-2.28836 0.75155,-3.44206 0.27056,-1.16637 0.54112,-2.30738 0.81167,-3.42305 0.28059,-1.12833 0.55616,-2.22498 0.82672,-3.28993 0.28057,-1.06494 0.55113,-2.07284 0.81167,-3.0237 l 1.42795,0 c 0.12024,0.55784 0.2455,1.2171 0.37577,1.97777 0.14029,0.76068 0.27557,1.55939 0.40584,2.39613 0.14029,0.82407 0.26555,1.64814 0.37578,2.4722 0.12024,0.82407 0.22045,1.57208 0.30062,2.244 0.36074,-0.6846 0.75656,-1.43895 1.18745,-2.26301 0.44091,-0.82406 0.88181,-1.64814 1.32274,-2.47221 0.4409,-0.83673 0.86678,-1.62911 1.27764,-2.37711 0.42086,-0.76067 0.79664,-1.41993 1.12733,-1.97777 l 1.39789,0 c -0.17036,2.14259 -0.40084,4.32319 -0.69143,6.54183 -0.28059,2.20597 -0.59123,4.41828 -0.93192,6.63691 l -1.45803,0 c 0.30062,-1.82562 0.57619,-3.59419 0.82673,-5.30572 0.2505,-1.7242 0.47095,-3.40403 0.66136,-5.03949"
       inkscape:export-filename="/home/special-k/38_1.png"
       inkscape:export-xdpi="300"
       inkscape:export-ydpi="300"
       id="path3932" />
    <path
       inkscape:connector-curvature="0"
       id="path3934"
       style="font-size:16.90694046px;font-style:italic;font-variant:normal;font-weight:normal;font-stretch:normal;text-align:start;line-height:125%;letter-spacing:0px;word-spacing:0px;writing-mode:lr-tb;text-anchor:start;fill:#ff5555;fill-opacity:1;stroke:none;font-family:Ubuntu;-inkscape-font-specification:Ubuntu Italic"
       d="m 344.31754,571.18401 c 0.38079,-0.76067 0.72651,-1.5467 1.03715,-2.3581 0.31063,-0.82406 0.58119,-1.6101 0.81168,-2.3581 0.24048,-0.74799 0.4409,-1.4326 0.60123,-2.05383 0.16033,-0.63389 0.27557,-1.14101 0.34572,-1.52136 l 1.45801,0 c -0.11024,0.48177 -0.26555,1.08398 -0.46596,1.80661 -0.20042,0.70997 -0.44593,1.48333 -0.73652,2.32007 -0.28059,0.82407 -0.60125,1.6735 -0.96199,2.54827 -0.35073,0.86211 -0.73653,1.69251 -1.15739,2.49122 -0.32066,0.59587 -0.64133,1.1537 -0.96199,1.67349 -0.32067,0.53247 -0.66638,0.98888 -1.03714,1.36922 -0.36075,0.39302 -0.76157,0.69729 -1.20249,0.91281 -0.4409,0.2282 -0.93693,0.34232 -1.48806,0.34232 -0.28059,0 -0.54112,-0.0443 -0.78162,-0.13312 -0.24049,-0.0888 -0.41586,-0.18384 -0.52609,-0.28525 l 0.481,-1.4453 c 0.10021,0.10146 0.23548,0.18383 0.40583,0.24722 0.17035,0.076 0.36075,0.1141 0.57119,0.1141 0.58119,0 1.0722,-0.17749 1.47304,-0.53247 0.41085,-0.35498 0.79664,-0.82407 1.15739,-1.40726 -0.37077,-1.53402 -0.6764,-3.15046 -0.91689,-4.84932 -0.23048,-1.69884 -0.37077,-3.42304 -0.42088,-5.17261 l 1.42795,0 c 0.01,0.57052 0.035,1.19808 0.0751,1.88268 0.0401,0.67194 0.0952,1.37556 0.16533,2.11088 0.0802,0.72265 0.17035,1.45164 0.27056,2.18695 0.11023,0.73533 0.23549,1.43895 0.37578,2.11088"
       inkscape:export-filename="/home/special-k/38_1.png"
       inkscape:export-xdpi="300"
       inkscape:export-ydpi="300" />
    <path
       inkscape:connector-curvature="0"
       id="path3936"
       style="font-size:18.15472984px;font-style:italic;font-variant:normal;font-weight:500;font-stretch:normal;text-align:start;line-height:125%;letter-spacing:0px;word-spacing:0px;writing-mode:lr-tb;text-anchor:start;fill:#ff2a2a;fill-opacity:1;stroke:none;font-family:Ubuntu;-inkscape-font-specification:Ubuntu Medium Italic"
       d="m 352.00955,572.78143 2.6793,-14.15137 6.89195,0 -0.40352,2.14414 -4.87439,0 -0.69404,3.67568 4.30948,0 -0.4035,2.12374 -4.29334,0 -1.17826,6.20781 -2.03368,0"
       inkscape:export-filename="/home/special-k/38_1.png"
       inkscape:export-xdpi="300"
       inkscape:export-ydpi="300" />
    <path
       inkscape:connector-curvature="0"
       id="path3938"
       style="font-size:18.15472984px;font-style:italic;font-variant:normal;font-weight:500;font-stretch:normal;text-align:start;line-height:125%;letter-spacing:0px;word-spacing:0px;writing-mode:lr-tb;text-anchor:start;fill:#ff2a2a;fill-opacity:1;stroke:none;font-family:Ubuntu;-inkscape-font-specification:Ubuntu Medium Italic"
       d="m 366.87585,564.28653 c -0.21522,-0.0953 -0.44655,-0.17017 -0.69404,-0.22464 -0.24749,-0.0544 -0.53801,-0.0817 -0.87157,-0.0817 -0.18293,0 -0.37662,0.0205 -0.58106,0.0613 -0.20445,0.0272 -0.37662,0.0681 -0.51649,0.12253 l -1.63018,8.61743 -1.95298,0 1.93683,-10.18981 c 0.45193,-0.19058 0.94152,-0.35394 1.46878,-0.49009 0.52725,-0.14974 1.09754,-0.22461 1.71089,-0.22462 0.12911,10e-6 0.27438,0.0136 0.43578,0.0408 0.1614,0.0136 0.31743,0.0341 0.46808,0.0613 0.16139,0.0272 0.30665,0.0613 0.43579,0.10213 0.13987,0.0408 0.25823,0.0885 0.35508,0.14294 l -0.56491,2.06247"
       inkscape:export-filename="/home/special-k/38_1.png"
       inkscape:export-xdpi="300"
       inkscape:export-ydpi="300" />
    <path
       inkscape:connector-curvature="0"
       id="path3940"
       style="font-size:18.15472984px;font-style:italic;font-variant:normal;font-weight:500;font-stretch:normal;text-align:start;line-height:125%;letter-spacing:0px;word-spacing:0px;writing-mode:lr-tb;text-anchor:start;fill:#ff2a2a;fill-opacity:1;stroke:none;font-family:Ubuntu;-inkscape-font-specification:Ubuntu Medium Italic"
       d="m 370.53064,573.06732 c -1.00071,0 -1.76468,-0.37438 -2.29193,-1.12312 -0.52726,-0.74875 -0.79088,-1.73574 -0.79088,-2.96097 0,-0.78958 0.0968,-1.6064 0.29052,-2.45045 0.19369,-0.84404 0.48959,-1.61321 0.88772,-2.30752 0.39814,-0.69428 0.89848,-1.26605 1.50106,-1.71532 0.60257,-0.44924 1.31275,-0.67386 2.13054,-0.67387 1.00069,1e-5 1.76466,0.37438 2.29193,1.12312 0.52724,0.73515 0.79087,1.71533 0.79088,2.94055 -1e-5,0.80321 -0.0969,1.62683 -0.29052,2.47087 -0.18294,0.84406 -0.47347,1.61323 -0.87159,2.30752 -0.38737,0.6943 -0.88773,1.26607 -1.50106,1.71531 -0.60257,0.44926 -1.31813,0.67388 -2.14667,0.67388 m 1.48492,-9.14837 c -0.41965,2e-5 -0.79626,0.15657 -1.12983,0.46968 -0.32282,0.29951 -0.5972,0.6875 -0.82316,1.16396 -0.2152,0.47649 -0.38199,1.00062 -0.50035,1.57237 -0.11837,0.55818 -0.17755,1.10271 -0.17755,1.63364 0,0.68069 0.10222,1.21843 0.30667,1.61323 0.20444,0.39479 0.56492,0.59218 1.08141,0.59218 0.41964,0 0.79087,-0.14974 1.11369,-0.44924 0.33356,-0.31311 0.60794,-0.7011 0.82316,-1.16397 0.22596,-0.47648 0.39812,-1.0006 0.51649,-1.57238 0.11836,-0.57176 0.17753,-1.11631 0.17754,-1.63363 -1e-5,-0.68067 -0.10223,-1.21842 -0.30667,-1.61322 -0.20444,-0.4084 -0.56492,-0.6126 -1.0814,-0.61262"
       inkscape:export-filename="/home/special-k/38_1.png"
       inkscape:export-xdpi="300"
       inkscape:export-ydpi="300" />
    <path
       inkscape:connector-curvature="0"
       style="font-size:18.15472984px;font-style:italic;font-variant:normal;font-weight:500;font-stretch:normal;text-align:start;line-height:125%;letter-spacing:0px;word-spacing:0px;writing-mode:lr-tb;text-anchor:start;fill:#ff2a2a;fill-opacity:1;stroke:none;font-family:Ubuntu;-inkscape-font-specification:Ubuntu Medium Italic"
       d="m 378.07628,562.55078 c 0.4304,-0.16334 0.91999,-0.3131 1.46877,-0.44925 0.55953,-0.14974 1.16748,-0.22461 1.82386,-0.22462 0.98994,1e-5 1.71626,0.30632 2.17895,0.91892 0.46269,0.61262 0.69403,1.43625 0.69404,2.47087 -10e-6,0.2859 -0.0215,0.59221 -0.0645,0.91893 -0.0323,0.31311 -0.0753,0.63984 -0.12912,0.98018 l -1.06527,5.61562 -1.95299,0 1.00071,-5.35016 c 0.0538,-0.29949 0.10759,-0.6058 0.1614,-0.91892 0.0538,-0.31311 0.0861,-0.6126 0.0968,-0.8985 0.0108,-0.47647 -0.0807,-0.87126 -0.27438,-1.18438 -0.18293,-0.31311 -0.54879,-0.46966 -1.09755,-0.46967 -0.46269,10e-6 -0.86083,0.0613 -1.19439,0.18378 l -1.63018,8.63785 -1.95298,0 1.93685,-10.23065"
       inkscape:export-filename="/home/special-k/38_1.png"
       inkscape:export-xdpi="300"
       inkscape:export-ydpi="300"
       id="path3942" />
    <path
       inkscape:connector-curvature="0"
       id="path3944"
       style="font-size:18.15472984px;font-style:italic;font-variant:normal;font-weight:500;font-stretch:normal;text-align:start;line-height:125%;letter-spacing:0px;word-spacing:0px;writing-mode:lr-tb;text-anchor:start;fill:#ff2a2a;fill-opacity:1;stroke:none;font-family:Ubuntu;-inkscape-font-specification:Ubuntu Medium Italic"
       d="m 387.55875,559.28351 2.03369,-0.40841 -0.61333,3.22643 2.76,0 -0.38737,2.04205 -2.76001,0 -0.80701,4.22703 c -0.0538,0.29952 -0.0915,0.55136 -0.11298,0.75557 -0.0215,0.19058 -0.0323,0.36757 -0.0323,0.53093 -10e-6,0.16336 0.0107,0.32673 0.0323,0.49008 0.0323,0.14976 0.0861,0.28589 0.1614,0.40842 0.0861,0.10888 0.20444,0.20421 0.35509,0.28588 0.1614,0.068 0.3766,0.10213 0.64562,0.10213 0.29052,0 0.57028,-0.0477 0.83929,-0.14295 0.269,-0.0953 0.50573,-0.19739 0.71018,-0.30631 l 0.14526,1.98079 c -0.24749,0.13613 -0.55954,0.26546 -0.93614,0.38799 -0.37662,0.12252 -0.81779,0.18378 -1.32351,0.18379 -0.92538,-10e-6 -1.58714,-0.25185 -1.98527,-0.75556 -0.39813,-0.51732 -0.5972,-1.21842 -0.5972,-2.10331 0,-0.32672 0.0162,-0.66026 0.0485,-1.0006 0.043,-0.35396 0.10222,-0.72832 0.17754,-1.12313 l 1.64632,-8.7808"
       inkscape:export-filename="/home/special-k/38_1.png"
       inkscape:export-xdpi="300"
       inkscape:export-ydpi="300" />
    <path
       inkscape:connector-curvature="0"
       id="path3946"
       style="font-size:18.15472984px;font-style:italic;font-variant:normal;font-weight:500;font-stretch:normal;text-align:start;line-height:125%;letter-spacing:0px;word-spacing:0px;writing-mode:lr-tb;text-anchor:start;fill:#ff2a2a;fill-opacity:1;stroke:none;font-family:Ubuntu;-inkscape-font-specification:Ubuntu Medium Italic"
       d="m 392.06822,568.92197 c 0,-0.91211 0.11298,-1.79019 0.33895,-2.63424 0.23673,-0.85765 0.5703,-1.61321 1.0007,-2.26668 0.44117,-0.66705 0.96842,-1.19798 1.58177,-1.59278 0.61332,-0.3948 1.30198,-0.59219 2.06596,-0.5922 0.81777,1e-5 1.45263,0.26547 1.90457,0.79639 0.45192,0.53094 0.67789,1.21163 0.67789,2.04206 0,0.85766 -0.16679,1.55195 -0.50035,2.08288 -0.33357,0.53094 -0.76936,0.94615 -1.30737,1.24565 -0.52726,0.2995 -1.12983,0.50371 -1.80772,0.61261 -0.66714,0.10888 -1.34504,0.17698 -2.03369,0.20421 -0.0108,0.0272 -0.0161,0.0544 -0.0161,0.0817 l 0,0.20421 c 0,1.23884 0.61872,1.85826 1.85614,1.85826 0.7317,0 1.46339,-0.19058 2.1951,-0.57177 l 0.1614,2.0012 c -0.25825,0.14976 -0.6241,0.2995 -1.09754,0.44926 -0.47346,0.14974 -1.01147,0.22462 -1.61404,0.22462 -0.60258,0 -1.11907,-0.10888 -1.54947,-0.32673 -0.43042,-0.21782 -0.78551,-0.51732 -1.06528,-0.89849 -0.269,-0.38119 -0.46807,-0.81682 -0.59719,-1.30692 -0.12912,-0.5037 -0.19368,-1.04143 -0.19368,-1.61321 m 4.69685,-5.06427 c -0.32281,0 -0.62948,0.0817 -0.92,0.24503 -0.29053,0.16338 -0.54878,0.388 -0.77474,0.67388 -0.22597,0.28589 -0.42504,0.62624 -0.59719,1.02103 -0.16142,0.38119 -0.27978,0.79641 -0.3551,1.24564 1.29124,-0.0544 2.22738,-0.25184 2.80844,-0.59219 0.5918,-0.34034 0.88771,-0.85084 0.88772,-1.53154 -1e-5,-0.27225 -0.0807,-0.5173 -0.24211,-0.73513 -0.15065,-0.21781 -0.41966,-0.32672 -0.80702,-0.32672"
       inkscape:export-filename="/home/special-k/38_1.png"
       inkscape:export-xdpi="300"
       inkscape:export-ydpi="300" />
    <path
       inkscape:connector-curvature="0"
       id="path3948"
       style="font-size:18.15472984px;font-style:italic;font-variant:normal;font-weight:500;font-stretch:normal;text-align:start;line-height:125%;letter-spacing:0px;word-spacing:0px;writing-mode:lr-tb;text-anchor:start;fill:#ff2a2a;fill-opacity:1;stroke:none;font-family:Ubuntu;-inkscape-font-specification:Ubuntu Medium Italic"
       d="m 402.06618,562.55078 c 0.43042,-0.16334 0.92,-0.3131 1.46878,-0.44925 0.55953,-0.14974 1.16748,-0.22461 1.82387,-0.22462 0.98993,1e-5 1.71625,0.30632 2.17895,0.91892 0.46268,0.61262 0.69402,1.43625 0.69403,2.47087 -10e-6,0.2859 -0.0215,0.59221 -0.0645,0.91893 -0.0323,0.31311 -0.0753,0.63984 -0.12913,0.98018 l -1.06526,5.61562 -1.95299,0 1.00071,-5.35016 c 0.0538,-0.29949 0.1076,-0.6058 0.1614,-0.91892 0.0538,-0.31311 0.0861,-0.6126 0.0969,-0.8985 0.0107,-0.47647 -0.0807,-0.87126 -0.27439,-1.18438 -0.18293,-0.31311 -0.54878,-0.46966 -1.09755,-0.46967 -0.4627,10e-6 -0.86082,0.0613 -1.19438,0.18378 l -1.63019,8.63785 -1.95298,0 1.93684,-10.23065"
       inkscape:export-filename="/home/special-k/38_1.png"
       inkscape:export-xdpi="300"
       inkscape:export-ydpi="300" />
    <path
       inkscape:connector-curvature="0"
       id="path3950"
       style="font-size:18.15472984px;font-style:italic;font-variant:normal;font-weight:500;font-stretch:normal;text-align:start;line-height:125%;letter-spacing:0px;word-spacing:0px;writing-mode:lr-tb;text-anchor:start;fill:#ff2a2a;fill-opacity:1;stroke:none;font-family:Ubuntu;-inkscape-font-specification:Ubuntu Medium Italic"
       d="m 412.43638,573.06732 c -0.50574,0 -0.94153,-0.10213 -1.30737,-0.3063 -0.36585,-0.21782 -0.66714,-0.51052 -0.90387,-0.87808 -0.22597,-0.36757 -0.39274,-0.80321 -0.50034,-1.30692 -0.10761,-0.50369 -0.16141,-1.04824 -0.16141,-1.63364 0,-0.9121 0.12374,-1.79018 0.37123,-2.63424 0.25824,-0.85765 0.61871,-1.60639 1.0814,-2.24625 0.47345,-0.65344 1.04913,-1.17076 1.72702,-1.55195 0.67789,-0.39478 1.44726,-0.59218 2.30808,-0.59219 0.1076,1e-5 0.23672,0.007 0.38737,0.0204 0.15064,0.0136 0.31742,0.0477 0.50035,0.10213 l 0.88773,-4.69671 2.03368,-0.40841 -2.21123,11.57841 c -0.0538,0.31311 -0.0969,0.63303 -0.12912,0.95976 -0.0215,0.31311 -0.0323,0.61261 -0.0323,0.8985 -10e-6,0.36757 0.0269,0.73514 0.0807,1.1027 0.0538,0.36758 0.13987,0.74875 0.25825,1.14355 l -1.74316,0.32673 c -0.11838,-0.28588 -0.2206,-0.63303 -0.30667,-1.04145 -0.26901,0.2995 -0.5972,0.57177 -0.98456,0.81682 -0.38738,0.23143 -0.83931,0.34715 -1.3558,0.34715 m 3.11509,-9.02585 c -0.20444,-0.0544 -0.45193,-0.0817 -0.74245,-0.0817 -0.49498,2e-5 -0.94691,0.13615 -1.35579,0.40841 -0.4089,0.25867 -0.75861,0.61262 -1.04913,1.06187 -0.29053,0.43564 -0.51649,0.93934 -0.6779,1.51111 -0.15064,0.57178 -0.22596,1.16397 -0.22596,1.77658 0,0.31312 0.0215,0.60582 0.0645,0.87809 0.0538,0.27227 0.13449,0.51051 0.2421,0.71471 0.1076,0.20421 0.24748,0.36757 0.41965,0.49009 0.18292,0.12252 0.4035,0.18379 0.66175,0.18379 0.34433,0 0.64562,-0.0885 0.90387,-0.26547 0.269,-0.17697 0.52186,-0.42202 0.7586,-0.73513 0.0107,-0.28589 0.0323,-0.58539 0.0645,-0.89851 0.043,-0.31311 0.0915,-0.61941 0.14526,-0.91892 l 0.79088,-4.12493"
       inkscape:export-filename="/home/special-k/38_1.png"
       inkscape:export-xdpi="300"
       inkscape:export-ydpi="300" />
    <g
       id="g4153"
       transform="translate(242.64502,148.29873)"
       style="fill:#00ccff"
       inkscape:export-filename="/home/special-k/38_1.png"
       inkscape:export-xdpi="300"
       inkscape:export-ydpi="300">
      <g
         id="g4410"
         transform="translate(-2.4209574,0.17857143)">
        <path
           style="font-size:22px;font-style:normal;font-variant:normal;font-weight:bold;font-stretch:normal;text-align:start;line-height:125%;letter-spacing:0px;word-spacing:0px;writing-mode:lr-tb;text-anchor:start;fill:#00ccff;fill-opacity:1;stroke:none;font-family:Ubuntu Mono;-inkscape-font-specification:Ubuntu Mono Bold"
           d="m 76.325439,386.95749 8.448,-3.542 0.748,2.376 -6.16,2.398 6.16,2.398 -0.748,2.376 -8.448,-3.564 0,-2.442"
           id="path3962"
           inkscape:connector-curvature="0"
           inkscape:export-filename="/home/special-k/g3767.png"
           inkscape:export-xdpi="600.24207"
           inkscape:export-ydpi="600.24207" />
        <path
           style="font-size:22px;font-style:normal;font-variant:normal;font-weight:bold;font-stretch:normal;text-align:start;line-height:125%;letter-spacing:0px;word-spacing:0px;writing-mode:lr-tb;text-anchor:start;fill:#00ccff;fill-opacity:1;stroke:none;font-family:Ubuntu Mono;-inkscape-font-specification:Ubuntu Mono Bold"
           d="m 92.583439,380.53349 c -1e-5,0.52801 -0.16868,0.94601 -0.506,1.254 -0.33734,0.30801 -0.74067,0.46201 -1.21,0.462 -0.46934,1e-5 -0.87267,-0.15399 -1.21,-0.462 -0.32267,-0.30799 -0.48401,-0.72599 -0.484,-1.254 -1e-5,-0.54265 0.16133,-0.96798 0.484,-1.276 0.33733,-0.30798 0.74066,-0.46198 1.21,-0.462 0.46933,2e-5 0.87266,0.15402 1.21,0.462 0.33732,0.30802 0.50599,0.73335 0.506,1.276 m 4.026,12.87 c -0.55735,0.264 -1.08534,0.44 -1.584,0.528 -0.48401,0.10267 -0.93134,0.154 -1.342,0.154 -0.70401,0 -1.29801,-0.10267 -1.782,-0.308 -0.46934,-0.20533 -0.85067,-0.49867 -1.144,-0.88 -0.27867,-0.396 -0.47667,-0.87266 -0.594,-1.43 -0.11734,-0.55733 -0.17601,-1.19533 -0.176,-1.914 l 0,-3.806 -2.86,0 0,-2.244 5.566,0 0,6.402 c -1e-5,0.616 0.10999,1.078 0.33,1.386 0.23466,0.29334 0.61599,0.44 1.144,0.44 0.24932,0 0.54999,-0.0293 0.902,-0.088 0.35199,-0.0733 0.74799,-0.21266 1.188,-0.418 l 0.352,2.178"
           id="path3964"
           inkscape:connector-curvature="0"
           inkscape:export-filename="/home/special-k/g3767.png"
           inkscape:export-xdpi="600.24207"
           inkscape:export-ydpi="600.24207" />
        <path
           style="font-size:22px;font-style:normal;font-variant:normal;font-weight:bold;font-stretch:normal;text-align:start;line-height:125%;letter-spacing:0px;word-spacing:0px;writing-mode:lr-tb;text-anchor:start;fill:#00ccff;fill-opacity:1;stroke:none;font-family:Ubuntu Mono;-inkscape-font-specification:Ubuntu Mono Bold"
           d="m 107.43344,389.42149 -8.448001,3.564 -0.77,-2.376 6.182001,-2.398 -6.182001,-2.398 0.77,-2.376 8.448001,3.542 0,2.442"
           id="path3966"
           inkscape:connector-curvature="0"
           inkscape:export-filename="/home/special-k/g3767.png"
           inkscape:export-xdpi="600.24207"
           inkscape:export-ydpi="600.24207" />
      </g>
      <g
         id="g4415"
         transform="translate(2.0752358,-0.24619279)">
        <path
           style="font-size:22px;font-style:normal;font-variant:normal;font-weight:bold;font-stretch:normal;text-align:start;line-height:125%;letter-spacing:0px;word-spacing:0px;writing-mode:lr-tb;text-anchor:start;fill:#00ccff;fill-opacity:1;stroke:none;font-family:Ubuntu Mono;-inkscape-font-specification:Ubuntu Mono Bold"
           d="m 76.00401,452.11232 8.448,-3.542 0.748,2.376 -6.16,2.398 6.16,2.398 -0.748,2.376 -8.448,-3.564 0,-2.442"
           id="path3953"
           inkscape:connector-curvature="0"
           inkscape:export-filename="/home/special-k/g3767.png"
           inkscape:export-xdpi="600.24207"
           inkscape:export-ydpi="600.24207" />
        <path
           style="font-size:22px;font-style:normal;font-variant:normal;font-weight:bold;font-stretch:normal;text-align:start;line-height:125%;letter-spacing:0px;word-spacing:0px;writing-mode:lr-tb;text-anchor:start;fill:#00ccff;fill-opacity:1;stroke:none;font-family:Ubuntu Mono;-inkscape-font-specification:Ubuntu Mono Bold"
           d="m 89.86401,462.62832 -2.816,0 6.16,-19.008 2.772,0 -6.116,19.008"
           id="path3955"
           inkscape:connector-curvature="0"
           inkscape:export-filename="/home/special-k/g3767.png"
           inkscape:export-xdpi="600.24207"
           inkscape:export-ydpi="600.24207" />
        <path
           style="font-size:22px;font-style:normal;font-variant:normal;font-weight:bold;font-stretch:normal;text-align:start;line-height:125%;letter-spacing:0px;word-spacing:0px;writing-mode:lr-tb;text-anchor:start;fill:#00ccff;fill-opacity:1;stroke:none;font-family:Ubuntu Mono;-inkscape-font-specification:Ubuntu Mono Bold"
           d="m 103.26201,445.68832 c -1e-5,0.52801 -0.16868,0.94601 -0.506,1.254 -0.33734,0.30801 -0.74067,0.46201 -1.21,0.462 -0.46934,1e-5 -0.87267,-0.15399 -1.21,-0.462 -0.32267,-0.30799 -0.48401,-0.72599 -0.484,-1.254 -1e-5,-0.54265 0.16133,-0.96799 0.484,-1.276 0.33733,-0.30799 0.74066,-0.46199 1.21,-0.462 0.46933,1e-5 0.87266,0.15401 1.21,0.462 0.33732,0.30801 0.50599,0.73335 0.506,1.276 m 4.026,12.87 c -0.55735,0.264 -1.08534,0.44 -1.584,0.528 -0.48401,0.10267 -0.93134,0.154 -1.342,0.154 -0.70401,0 -1.29801,-0.10267 -1.782,-0.308 -0.46934,-0.20533 -0.85067,-0.49867 -1.144,-0.88 -0.27867,-0.396 -0.47667,-0.87267 -0.594,-1.43 -0.11734,-0.55733 -0.17601,-1.19533 -0.176,-1.914 l 0,-3.806 -2.86,0 0,-2.244 5.566,0 0,6.402 c -1e-5,0.616 0.10999,1.078 0.33,1.386 0.23466,0.29333 0.61599,0.44 1.144,0.44 0.24932,0 0.54999,-0.0293 0.902,-0.088 0.35199,-0.0733 0.74799,-0.21267 1.188,-0.418 l 0.352,2.178"
           id="path3957"
           inkscape:connector-curvature="0"
           inkscape:export-filename="/home/special-k/g3767.png"
           inkscape:export-xdpi="600.24207"
           inkscape:export-ydpi="600.24207" />
        <path
           style="font-size:22px;font-style:normal;font-variant:normal;font-weight:bold;font-stretch:normal;text-align:start;line-height:125%;letter-spacing:0px;word-spacing:0px;writing-mode:lr-tb;text-anchor:start;fill:#00ccff;fill-opacity:1;stroke:none;font-family:Ubuntu Mono;-inkscape-font-specification:Ubuntu Mono Bold"
           d="m 118.11201,454.57632 -8.448,3.564 -0.77,-2.376 6.182,-2.398 -6.182,-2.398 0.77,-2.376 8.448,3.542 0,2.442"
           id="path3959"
           inkscape:connector-curvature="0"
           inkscape:export-filename="/home/special-k/g3767.png"
           inkscape:export-xdpi="600.24207"
           inkscape:export-ydpi="600.24207" />
      </g>
    </g>
  </g>
</svg>
